<?xml version="1.0" encoding="utf-8"?>
<!-- Generator: Adobe Illustrator 27.1.0, SVG Export Plug-In . SVG Version: 6.00 Build 0)  -->
<svg version="1.1" id="Layer_1" xmlns="http://www.w3.org/2000/svg" xmlns:xlink="http://www.w3.org/1999/xlink" x="0px" y="0px"
	 viewBox="0 0 387.5 92" style="enable-background:new 0 0 387.5 92;" xml:space="preserve">
<style type="text/css">
	.st0{fill:#B5B5B6;}
	.st1{fill:#082241;}
	.st2{fill:#FFFFFF;}
	.st3{fill:#00A6D9;}
	.st4{fill:#1D89CA;}
	.st5{fill:none;stroke:#1D89CA;stroke-width:1.17;stroke-linecap:round;stroke-linejoin:round;}
	.st6{fill:none;stroke:#1D89CA;stroke-width:1.01;stroke-linecap:round;stroke-linejoin:round;}
</style>
<path class="st0" d="M34.5,80.4c19.1,0,34.5-15.2,34.5-34c0-18.8-15.4-34-34.5-34C15.4,12.3,0,27.6,0,46.3
	C0,65.1,15.4,80.4,34.5,80.4z"/>
<path class="st1" d="M36.1,80.9c18.1,0,32.7-14.6,32.7-32.7c0-18.1-14.6-32.7-32.7-32.7S3.4,30.2,3.4,48.2
	C3.4,66.3,18,80.9,36.1,80.9z"/>
<path class="st2" d="M36.1,16.9c6.2,0,12.2,1.8,17.4,5.3c5.2,3.4,9.2,8.3,11.5,14.1c2.4,5.7,3,12,1.8,18.1c-1.2,6.1-4.2,11.7-8.6,16
	c-4.4,4.4-10,7.4-16,8.6c-6.1,1.2-12.4,0.6-18.1-1.8c-5.7-2.4-10.6-6.4-14.1-11.5c-3.4-5.2-5.3-11.2-5.3-17.4
	c0-8.3,3.3-16.3,9.2-22.1C19.8,20.2,27.7,16.9,36.1,16.9z M36.1,14.1c-7.9,0-15.5,2.7-21.6,7.7S4.1,33.8,2.6,41.6
	C1.1,49.3,2.3,57.3,6,64.3c3.7,7,9.7,12.4,17,15.4c7.3,3,15.4,3.4,22.9,1.1c7.5-2.3,14.1-7.1,18.5-13.7c4.4-6.6,6.4-14.4,5.6-22.3
	s-4.2-15.2-9.8-20.8c-3.2-3.2-6.9-5.7-11-7.4C45,15,40.5,14.1,36.1,14.1z"/>
<path class="st2" d="M30.4,60.9l7.1-2.2c0,0-0.8,8.1-10.1,8.3l2.8-2.3L30.4,60.9z"/>
<path class="st2" d="M21.4,49.1l4.2-7c0,0-8.1-1.2-10.9,8.7l3-2.4L21.4,49.1z"/>
<path class="st0" d="M26.2,62.2c0,0-9.8,7-6.1,14.3c0,0,4,6.6,15,3.4c0,0-8.2,4.7-17.4,0.2c0,0-13-7.2,1.8-26L26.2,62.2z"/>
<path class="st2" d="M19.2,56.2c0,0-16.9,17.8,2.5,25c0,0-9.3-9.6,1.8-19.3L19.2,56.2z"/>
<path class="st3" d="M56.4,29.4l-20.6,3.5L22.5,50.8c0,0,0.3,6.1,6.6,8.3c0,0,19.4-8.9,21.2-10.7L56.4,29.4z"/>
<path class="st2" d="M50.2,32.6l2.1,2.3l-2.9,11.3h-3.2l0.7-4l-5,0l0.3-5.3l-4,0.6v-2.8L50.2,32.6z"/>
<path class="st2" d="M36.2,35.3L25.8,48.6l10.4-10.9V35.3z"/>
<path class="st2" d="M24.8,53.5L37,39.7h2.6v2.9L24.8,53.5z"/>
<path class="st2" d="M28.8,55.4l12.8-11.1l2.8-0.3l-0.3,2.9L28.8,55.4z"/>
<path class="st2" d="M32.7,55.7l12.6-7.6h3.1L32.7,55.7z"/>
<path class="st2" d="M14.4,37.7l0.5,1l1.1,0.2l-0.8,0.8l0.2,1.1l-1-0.5l-1,0.5l0.2-1.1l-0.8-0.8l1.1-0.2L14.4,37.7z"/>
<path class="st2" d="M10.4,54.2l0.2,0.5l0.5,0.1l-0.4,0.4l0.1,0.5l-0.5-0.2l-0.5,0.2l0.1-0.5l-0.4-0.4l0.5-0.1L10.4,54.2z"/>
<path class="st2" d="M29.9,35l0.2,0.5l0.5,0.1l-0.4,0.4l0.1,0.5l-0.5-0.2l-0.5,0.2l0.1-0.5l-0.4-0.4l0.5-0.1L29.9,35z"/>
<path class="st2" d="M21.6,27.9l0.2,0.3l0.3,0l-0.2,0.2l0.1,0.3l-0.3-0.2l-0.3,0.2l0.1-0.3l-0.2-0.2l0.3,0L21.6,27.9z"/>
<path class="st2" d="M34.2,23.2l0.4,0.9l1,0.1l-0.7,0.7l0.2,0.9l-0.9-0.4l-0.9,0.4l0.2-0.9l-0.7-0.7l1-0.1L34.2,23.2z"/>
<path class="st2" d="M51.7,26.7l0.2,0.4l0.4,0.1L52,27.4l0.1,0.4l-0.4-0.2l-0.4,0.2l0.1-0.4l-0.3-0.3l0.4-0.1L51.7,26.7z"/>
<path class="st2" d="M61.6,38.7l0.2,0.4l0.5,0.1l-0.3,0.3l0.1,0.5l-0.4-0.2l-0.4,0.2l0.1-0.5l-0.3-0.3l0.5-0.1L61.6,38.7z"/>
<path class="st2" d="M61.1,47.1l0.5,1l1.1,0.2l-0.8,0.8l0.2,1.1l-1-0.5l-1,0.5l0.2-1.1l-0.8-0.8l1.1-0.2L61.1,47.1z"/>
<path class="st2" d="M53.5,64.4l0.5,0.9l1,0.1l-0.7,0.7l0.2,1l-0.9-0.5l-0.9,0.5l0.2-1L52,65.5l1-0.1L53.5,64.4z"/>
<path class="st2" d="M47.7,58.5l0.2,0.5l0.5,0.1L48,59.5l0.1,0.5l-0.5-0.2L47.2,60l0.1-0.5l-0.4-0.4l0.5-0.1L47.7,58.5z"/>
<path class="st2" d="M44.9,69.9l0.2,0.3l0.4,0.1l-0.3,0.3l0.1,0.4l-0.3-0.2l-0.3,0.2l0.1-0.4l-0.3-0.3l0.4-0.1L44.9,69.9z"/>
<path class="st1" d="M99.2,58.6c-0.8,1.5-2.1,2.6-3.6,3.4c-1.6,0.8-3.6,1.3-5.9,1.3c-2.1,0-4.2-0.4-6.1-1.2
	c-1.7-0.7-3.2-1.9-4.3-3.4c-1.1-1.5-1.7-3.2-1.9-5h5.8c0.1,1.4,0.8,2.8,1.9,3.8c1.1,1,2.6,1.6,4.4,1.6c1.6,0,2.9-0.4,3.8-1.3
	c0.4-0.4,0.8-1,1-1.6c0.2-0.6,0.3-1.2,0.3-1.8c0-1.1-0.3-2.1-1-3c-0.7-0.8-1.5-1.4-2.5-1.8c-1-0.4-2.3-0.9-4-1.5
	c-1.7-0.5-3.5-1.2-5.1-2c-1.3-0.7-2.5-1.7-3.3-2.9c-0.9-1.3-1.4-2.9-1.4-5c0-1.7,0.4-3.3,1.3-4.8c0.9-1.4,2.3-2.5,3.8-3.2
	c1.8-0.8,3.7-1.2,5.7-1.1c3.4,0,6.1,0.8,8.1,2.5c1,0.8,1.8,1.8,2.4,2.9c0.6,1.1,1,2.3,1.1,3.6h-5.9c-0.2-1.3-0.8-2.4-1.8-3.3
	c-1-0.9-2.3-1.4-4-1.4c-1.5,0-2.7,0.4-3.7,1.2c-0.9,0.8-1.4,1.9-1.4,3.3c0,1,0.3,2,1,2.8c0.7,0.8,1.5,1.4,2.4,1.8
	c1,0.4,2.3,0.9,4,1.5c1.8,0.5,3.5,1.2,5.2,2c1.4,0.7,2.5,1.7,3.4,3c0.9,1.3,1.4,3,1.4,5.1C100.3,55.6,99.9,57.2,99.2,58.6z"/>
<path class="st1" d="M125.8,39.2c2.2,1.8,3.6,4.2,4.1,7.3h-5.8c-0.3-1.5-1.1-2.9-2.3-3.9c-1.2-0.9-2.7-1.4-4.6-1.4
	c-1,0-1.9,0.2-2.8,0.5s-1.7,0.9-2.4,1.7c-1.4,1.5-2.1,3.6-2.1,6.5c0,2.8,0.7,5,2.1,6.5c0.7,0.7,1.5,1.3,2.4,1.7s1.9,0.6,2.9,0.5
	c1.8,0,3.4-0.5,4.6-1.4c1.2-1,2.1-2.4,2.3-3.9h5.7c-0.5,3.1-1.9,5.5-4.1,7.3c-2.2,1.8-5,2.7-8.4,2.7c-2.3,0-4.7-0.5-6.7-1.6
	c-1.9-1.1-3.5-2.7-4.6-4.7c-1.1-2-1.7-4.4-1.7-7.2c0-2.7,0.6-5.1,1.7-7.1c1-2,2.6-3.6,4.6-4.7c2.1-1.1,4.4-1.7,6.7-1.6
	C120.8,36.5,123.6,37.4,125.8,39.2z"/>
<path class="st1" d="M157.1,39.3c1.8,2,2.8,4.8,2.8,8.4V63h-5.4V48.3c0-2.3-0.6-4.1-1.8-5.4c-1.2-1.3-2.8-1.9-4.9-1.9
	c-2.2,0-3.9,0.7-5.2,2.1c-1.3,1.4-1.9,3.4-1.9,6.1V63h-5.4V27.8h5.4v14.7c0.6-1.9,1.9-3.5,3.5-4.6c1.7-1.1,3.7-1.7,5.7-1.6
	C152.8,36.4,155.2,37.4,157.1,39.3z"/>
<path class="st1" d="M184.9,38.1c2,1.1,3.7,2.7,4.7,4.7c1.1,2,1.7,4.4,1.7,7.1c0,2.8-0.6,5.2-1.7,7.2c-1.1,2-2.7,3.6-4.7,4.7
	c-2.1,1.1-4.5,1.6-6.8,1.6c-2.4,0-4.7-0.5-6.8-1.6c-2-1.1-3.6-2.7-4.7-4.7c-1.2-2-1.7-4.4-1.7-7.1c0-2.7,0.6-5.1,1.7-7.1
	c1.1-2,2.8-3.6,4.8-4.7c2.1-1.1,4.4-1.7,6.8-1.6C180.5,36.4,182.8,37,184.9,38.1z M174.3,42.1c-1.2,0.7-2.2,1.7-2.8,2.9
	c-0.7,1.3-1.1,2.9-1.1,4.8c0,1.9,0.4,3.5,1.1,4.8c0.6,1.2,1.6,2.2,2.8,2.9c1.2,0.6,2.5,0.9,3.8,0.9c1.3,0,2.7-0.3,3.8-0.9
	c1.2-0.7,2.2-1.7,2.8-2.9c0.7-1.3,1.1-2.9,1.1-4.8c0-1.9-0.4-3.5-1.1-4.8c-0.6-1.2-1.6-2.2-2.8-2.9c-1.2-0.6-2.5-0.9-3.8-0.9
	C176.8,41.2,175.4,41.5,174.3,42.1L174.3,42.1z"/>
<path class="st1" d="M202,27.8V63h-5.4V27.8H202z"/>
<path class="st1" d="M225.2,38.2c1.6,1.1,2.9,2.8,3.6,4.7v-6.1h5.4V63h-5.4v-6.1c-0.7,1.9-1.9,3.5-3.6,4.7c-1.7,1.2-3.7,1.8-6.1,1.8
	c-2.1,0-4.3-0.5-6.1-1.6c-1.8-1.1-3.3-2.7-4.2-4.7c-1-2-1.5-4.4-1.5-7.2c0-2.7,0.5-5.1,1.5-7.1c0.9-1.9,2.4-3.5,4.2-4.7
	c1.8-1.1,4-1.7,6.1-1.6C221.5,36.5,223.5,37.1,225.2,38.2z M215,43.5c-1.4,1.5-2.2,3.6-2.2,6.3c0,2.7,0.7,4.8,2.2,6.3
	c1.4,1.5,3.4,2.3,5.8,2.3c1.4,0,2.8-0.3,4.1-1.1c1.2-0.7,2.2-1.8,2.8-3c0.7-1.4,1-3,1-4.5s-0.4-3.1-1-4.5c-0.6-1.3-1.6-2.3-2.8-3
	c-1.2-0.7-2.7-1.1-4.1-1.1C218.3,41.2,216.4,42,215,43.5L215,43.5z"/>
<path class="st1" d="M249.8,37.9c1.7-1,3.7-1.5,5.7-1.5v5.9h-1.6c-2.4,0-4.3,0.6-5.7,1.7c-1.4,1.2-2.2,3.1-2.2,5.7V63h-5.4V36.8h5.4
	v5.1C246.9,40.3,248.2,38.9,249.8,37.9z"/>
<path class="st1" d="M284.8,32.3c2.7,2.1,4.6,4.9,5.5,8.5h-5.7c-0.7-2-2.1-3.6-3.8-4.8c-1.7-1.2-3.8-1.8-6.3-1.8
	c-1.9,0-3.7,0.5-5.3,1.5c-1.6,1-2.9,2.5-3.7,4.2c-0.9,2-1.4,4.2-1.4,6.4c-0.1,2.2,0.4,4.4,1.4,6.4c0.8,1.7,2.1,3.2,3.7,4.2
	c1.6,1,3.5,1.5,5.3,1.5c2.5,0,4.6-0.6,6.3-1.8c1.7-1.2,3-2.8,3.8-4.8h5.7c-0.9,3.6-2.8,6.4-5.5,8.5c-2.7,2.1-6.1,3.1-10.3,3.1
	c-3.2,0-6-0.7-8.4-2.2c-2.4-1.4-4.4-3.5-5.6-6c-1.3-2.6-2-5.5-2-8.9c0-3.3,0.7-6.3,2-8.9c1.3-2.5,3.2-4.6,5.6-6.1
	c2.5-1.5,5.5-2.2,8.4-2.2C278.6,29.1,282.1,30.2,284.8,32.3z"/>
<path class="st1" d="M304.9,37.9c1.7-1,3.7-1.5,5.7-1.5v5.9H309c-2.4,0-4.3,0.6-5.7,1.7c-1.4,1.2-2.2,3.1-2.2,5.7V63h-5.4V36.8h5.4
	v5.1C302,40.3,303.3,38.9,304.9,37.9z"/>
<path class="st1" d="M338.8,51h-20.1c0.1,2.7,0.8,4.7,2.2,6c1.4,1.3,3.3,2,5.2,1.9c1.6,0.1,3.2-0.4,4.6-1.4c1.2-0.9,2-2.2,2.3-3.7
	h5.8c-0.3,1.8-1.1,3.5-2.2,4.9c-1.1,1.4-2.6,2.6-4.3,3.3c-1.9,0.8-3.9,1.2-5.9,1.2c-2.3,0-4.7-0.5-6.7-1.6c-1.9-1.1-3.5-2.7-4.6-4.7
	c-1.1-2-1.7-4.4-1.7-7.2c0-2.7,0.6-5.1,1.7-7.1c1-2,2.6-3.6,4.6-4.7c2.1-1.1,4.4-1.7,6.7-1.6c2.6,0,4.8,0.5,6.7,1.6
	c1.9,1,3.4,2.5,4.4,4.4C338.8,45,339.3,48,338.8,51L338.8,51z M332.6,44.2c-0.6-1.1-1.5-2-2.7-2.5c-1.1-0.6-2.4-0.8-3.7-0.8
	c-2-0.1-3.9,0.6-5.3,1.9c-1.4,1.3-2.2,3.2-2.3,5.7h14.9C333.6,46.8,333.3,45.4,332.6,44.2L332.6,44.2z"/>
<path class="st1" d="M360.7,38.2c1.6,1.1,2.9,2.8,3.5,4.7v-15h5.5V63h-5.5v-6.1c-0.6,1.9-1.9,3.5-3.5,4.7c-1.7,1.2-3.7,1.8-6.1,1.8
	c-2.1,0-4.3-0.5-6.1-1.6c-1.8-1.1-3.3-2.7-4.2-4.7c-1-2-1.5-4.4-1.5-7.2c0-2.7,0.5-5.1,1.5-7.1c0.9-1.9,2.4-3.5,4.2-4.7
	c1.8-1.1,4-1.7,6.1-1.6C357,36.5,359.1,37.1,360.7,38.2z M350.5,43.5c-1.4,1.5-2.2,3.6-2.2,6.3c0,2.7,0.7,4.8,2.2,6.3
	c1.4,1.5,3.4,2.3,5.8,2.3c1.4,0,2.8-0.3,4.1-1.1c1.2-0.7,2.2-1.8,2.8-3c0.7-1.4,1-3,1-4.5s-0.4-3.1-1-4.5c-0.6-1.3-1.6-2.3-2.8-3
	c-1.2-0.7-2.6-1.1-4.1-1.1C353.9,41.2,352,42,350.5,43.5L350.5,43.5z"/>
<path class="st4" d="M93.9,29.4l-5.7,2.9l-5.7-2.9v-2.9h11.4V29.4z"/>
<path class="st1" d="M88.1,21.5l-7.5,4l7.5,4l7.5-4L88.1,21.5z"/>
<path class="st5" d="M93.7,27.6v1.9l-5.5,3h0l-5.5-3v-1.9"/>
<path class="st1" d="M81.5,30.1h-1.1v-3.2L81,26l0.6,0.9V30.1z"/>
<path class="st6" d="M94.8,31.6v-5"/>
<path class="st6" d="M94,32.5l0.8-0.8l0.8,0.8H94z"/>
</svg>
